<svg height="512pt" preserveAspectRatio="xMidYMid meet" viewBox="0 0 512 512" width="512pt" xmlns="http://www.w3.org/2000/svg"><path d="m440 5109c-132-19-256-93-334-199-55-74-84-149-97-249-6-49-9-810-7-2156l3-2080 22-65c55-162 177-282 337-333l71-22h2125 2125l71 22c163 52 285 174 337 338l22 70v2125 2125l-22 71c-51 160-171 282-333 337l-65 22-2100 1c-1155 1-2125-2-2155-7zm1835-1039c426-25 722-71 1260-195l70-16 127-269c71-147 128-273 128-278s-46-47-102-93c-383-311-879-784-1182-1129-217-248-557-683-767-985-29-41-55-75-59-75-5 0-90 88-414 427l-78 83 68 92c282 379 710 847 1059 1159 127 113 522 446 598 503 20 16 37 31 37 35 0 21-660 109-985 131-88 6-206 14-262 18l-101 7 141 303 142 302 70-5c39-3 151-10 250-15z" transform="matrix(.1 0 0 -.1 0 512)"/></svg>