<?xml version="1.0" standalone="no"?>
<!DOCTYPE svg PUBLIC "-//W3C//DTD SVG 20010904//EN"
 "http://www.w3.org/TR/2001/REC-SVG-20010904/DTD/svg10.dtd">
<svg version="1.0" xmlns="http://www.w3.org/2000/svg"
 width="128.000000pt" height="128.000000pt" viewBox="0 0 128.000000 128.000000"
 preserveAspectRatio="xMidYMid meet">

<g transform="translate(0.000000,128.000000) scale(0.100000,-0.100000)"
fill="#000000" stroke="none">
<path d="M75 1031 c-11 -5 -31 -21 -45 -36 l-25 -27 0 -329 0 -329 33 -32 32
-33 570 0 570 0 32 33 33 32 0 330 0 330 -33 32 -32 33 -558 2 c-306 1 -566
-2 -577 -6z m235 -249 c36 -27 49 -74 49 -179 1 -70 -3 -95 -15 -107 -30 -31
-64 -12 -64 36 0 26 -3 28 -39 28 -36 0 -39 -2 -45 -34 -7 -39 -37 -56 -61
-36 -12 10 -15 38 -15 119 0 120 9 144 60 179 40 27 88 25 130 -6z m791 5 c51
-34 60 -60 57 -160 -3 -86 -4 -90 -35 -118 -42 -37 -75 -45 -120 -28 -62 24
-78 57 -78 158 0 99 15 133 68 156 45 20 69 18 108 -8z m-641 3 c11 -7 16 -37
20 -122 5 -109 6 -113 28 -116 44 -6 52 13 52 119 0 75 4 101 16 113 20 20 29
20 49 -1 14 -13 16 -34 13 -124 -4 -125 -18 -154 -86 -179 -37 -13 -45 -12
-77 3 -60 29 -75 66 -75 189 0 91 3 108 18 117 21 13 23 13 42 1z m421 0 c37
-20 10 -70 -37 -70 -24 0 -24 -1 -24 -104 0 -82 -3 -108 -16 -120 -19 -20 -29
-20 -48 0 -13 12 -16 38 -16 120 0 103 0 104 -24 104 -24 0 -56 23 -56 40 0 5
7 16 16 24 18 19 173 23 205 6z"/>
<path d="M207 723 c-4 -3 -7 -24 -7 -45 0 -38 0 -38 40 -38 39 0 40 1 40 33 0
18 -5 38 -12 45 -13 13 -50 16 -61 5z"/>
<path d="M1012 718 c-7 -7 -12 -39 -12 -79 0 -73 12 -93 52 -87 22 3 23 7 23
88 0 83 -1 85 -25 88 -14 2 -31 -3 -38 -10z"/>
</g>
</svg>
