<svg height="32" viewBox="0 0 32 32" width="32" xmlns="http://www.w3.org/2000/svg"><path d="m12 10h14a2.0025 2.0025 0 0 0 2-2v-4a2.0025 2.0025 0 0 0 -2-2h-14a2.0025 2.0025 0 0 0 -2 2v1h-4v-3h-2v23a2.0025 2.0025 0 0 0 2 2h4v1a2.0025 2.0025 0 0 0 2 2h14a2.0025 2.0025 0 0 0 2-2v-4a2.0025 2.0025 0 0 0 -2-2h-14a2.0025 2.0025 0 0 0 -2 2v1h-4v-8h4v1a2.0025 2.0025 0 0 0 2 2h14a2.0025 2.0025 0 0 0 2-2v-4a2.0025 2.0025 0 0 0 -2-2h-14a2.0025 2.0025 0 0 0 -2 2v1h-4v-8h4v1a2.0025 2.0025 0 0 0 2 2zm0-6h14l.0012 4h-14.0012zm0 20h14l.0012 4h-14.0012zm0-10h14l.0012 4h-14.0012z"/><path d="m0 0h32v32h-32z" fill="none"/></svg>