<svg enable-background="new 0 0 305 305" viewBox="0 0 305 305" xmlns="http://www.w3.org/2000/svg"><path d="m95.506 152.511c0 31.426 25.567 56.991 56.994 56.991 31.425 0 56.99-25.566 56.99-56.991 0-31.426-25.565-56.993-56.99-56.993-31.427 0-56.994 25.567-56.994 56.993z"/><path d="m283.733 77.281c.444-.781.436-1.74-.023-2.513-13.275-22.358-32.167-41.086-54.633-54.159-23.155-13.475-49.636-20.597-76.577-20.597-46.625 0-90.077 20.924-119.215 57.407-.643.804-.727 1.919-.212 2.81l42.93 74.355c.45.78 1.28 1.25 2.164 1.25.112 0 .226-.008.339-.023 1.006-.137 1.829-.869 2.083-1.852 8.465-32.799 38.036-55.706 71.911-55.706 2.102 0 4.273.096 6.455.282.071.007.143.01.214.01h122.391c.899 0 1.729-.482 2.173-1.264z"/><path d="m175.035 224.936c-.621-.803-1.663-1.148-2.646-.876-6.457 1.798-13.148 2.709-19.889 2.709-28.641 0-55.038-16.798-67.251-42.794-.03-.064-.063-.126-.098-.188l-61.24-106.068c-.446-.775-1.272-1.25-2.165-1.25-.004 0-.009 0-.013 0-.898.005-1.725.49-2.165 1.272-12.801 22.715-19.568 48.57-19.568 74.77 0 36.755 13.26 72.258 37.337 99.969 23.838 27.435 56.656 45.49 92.411 50.84.124.019.248.027.371.027.883 0 1.713-.47 2.164-1.25l42.941-74.378c.508-.88.433-1.98-.189-2.783z"/><path d="m292.175 95.226h-85.974c-1.016 0-1.931.615-2.314 1.555-.384.94-.161 2.02.564 2.73 14.385 14.102 22.307 32.924 22.307 53 0 15.198-4.586 29.824-13.263 42.298-.04.058-.077.117-.112.178l-61.346 106.252c-.449.778-.446 1.737.007 2.513.449.767 1.271 1.237 2.158 1.237h.028c40.37-.45 78.253-16.511 106.669-45.222 28.439-28.735 44.101-66.826 44.101-107.256 0-19.217-3.532-37.956-10.498-55.698-.376-.958-1.299-1.587-2.327-1.587z"/></svg>