<svg clip-rule="evenodd" fill-rule="evenodd" stroke-linecap="round" stroke-linejoin="round" viewBox="0 0 5120 5120" xmlns="http://www.w3.org/2000/svg" xmlns:xlink="http://www.w3.org/1999/xlink"><linearGradient id="a" gradientUnits="userSpaceOnUse" x1="0" x2="0" y1="0" y2="4096"><stop offset="0"/><stop offset="1" stop-color="#b2b2b2"/></linearGradient><g><path d="m1050 0h3030c579.9-.00001125 1050 470.101 1050 1050v3020c0 579.9-470.1 1050-1050 1050h-3030c-579.899 0-1050.00005913-470.1-1050.00000843-1050v-3020c.00005555-579.899 470.10100843-1049.99998168 1050.00000843-1050z" fill="#fff"/><path d="m320 2560c0-1237.12 1002.88-2240 2240-2240s2240 1002.88 2240 2240-1002.88 2240-2240 2240-2240-1002.88-2240-2240z" fill="url(#a)"/><path d="m4090 1020-1720 1350 400 400z" fill="#202020"/><path d="m1020 4090 1350-1720 400 400z" fill="#fff"/></g><path d="m2560 540v330m0 3370v330m350-4000-57 325m-586 3318-57 327m1040-3878-113 310m-1153 3166-113 310m339-3878 57 325m586 3318 57 327m-1040-3878 113 310m1152 3166 113 310m-1696-3638 166 286m1685 2918 165 286m-2303-3290 212 253m2166 2582 212 253m-2840-2840 253 212m2582 2168 253 212m-3290-2302 286 165m2920 1685 286 165m-3640-1697 310 113m3166 1150 310 113m-3877-1040 326 58m3320 588 325 57m-4000-350h330m3370 0h330m-4000 350 325-57m3320-586 325-57m-3877 1040 310-113m3165-1152 310-113m-3638 1696 286-165m2920-1685 286-165m-3291 2302 253-212m2580-2166 253-212m-2840 2840 212-253m2166-2582 212-253m-2300 3288 166-286m1685-2918 165-286m-1184-262 16 180m320 3656 16 180m-698-3954 47 174m950 3544 47 174m-1374-3772 76 163m1550 3326 77 163m-2007-3478 103 148m2106 3006 103 148m-2581-3076 127 127m2596 2596 127 127m-3075-2580 148 103m3006 2107 146 100m-3476-2007 163 76m3326 1550 163 77m-3772-1373 174 47m3544 950 174 47m-3953-697 180 16m3656 320 180 16m-4014 0 180-16m3656-320 180-16m-3957 697 174-47m3544-950 174-47m-3772 1374 163-76m3326-1550 163-76m-3476 2005 148-103m3006-2107 146-100m-2806 2806 103-148m2105-3006 104-148m-2008 3476 77-163m1550-3327 77-163m-1374 3773 47-174m950-3544 47-174m-698 3952 16-180m320-3656 16-180" stroke="#fff" stroke-linecap="butt" stroke-linejoin="miter" stroke-width="30"/></svg>