<svg height="128" width="128" xmlns="http://www.w3.org/2000/svg"><path d="m108.65966 86.309541c1.73071-3.4831 3.07481-7.193829 3.95642-11.077991 3.44336-13.22783 2.40638-24.764694 2.40638-24.764694l-1.18151 7.602118s-1.69458-14.076925-3.77215-19.34132c-3.18321-8.060991-4.59957-7.999567-4.60319-7.985114 1.95834 4.982567 1.78491 7.836974 1.74517 8.266942-.0361-.05781-.0687-.115622-.0976-.169819-.47333-1.170669-2.8797-6.572364-8.039313-10.398715-9.040163-8.964284-21.473094-14.50328-35.210381-14.506893-14.655033 0-27.839505 6.304989-36.991674 16.349612-1.156216-1.6729-2.099254-3.703503-2.18597-5.947284 0 0-.0072.0072-.02168.01807 0-.03974-.01084-.07588-.01084-.112009 0 0-5.81721 4.505628-5.188518 16.663958-1.080339 2.073962-2.023377 4.23464-2.807436 6.471195-1.35494 2.951963-2.70988 7.2408-3.826351 13.534949 0 0 .480552-1.524759 1.441656-3.569816-.231243 1.74155-.372157 3.508392-.419128 5.300526-.325185 3.053132-.426354 6.738569-.140914 11.157481 0 0 .115622-1.466948.491392-3.68905 3.013387 24.764693 24.08903 43.954263 49.655849 43.954263 6.720503 0 13.1375-1.33688 18.990842-3.74326 13.300093-4.85611 21.169586-14.16002 25.808906-24.013145zm-44.796134-69.058592c8.837823 0 17.090312 2.456958 24.136001 6.720503-8.216357-1.907756-12.404026-.943038-12.367894-.896067.04697.0542 12.226981 2.128159 14.384045 5.098188 0 0-5.170451 0-10.319224 1.481402-.234856.06865 18.940253 2.395534 22.860556 21.556195 0 0-2.10287-4.38278-4.700744-5.130707 1.709031 5.199357 1.268221 15.066935-.361318 19.973625-.209564.628693-.426354-2.727946-3.627626-4.173215 1.026141 7.360035-.06504 19.0342-5.174065 22.249924-.393836.252922 3.204885-11.522411.726248-6.973425-14.788721 22.676279-32.370425 9.173848-39.506443 4.364714 5.72688 1.401911 11.804239.390223 15.327083-2.019764 3.548137-2.428053 5.651004-4.198509 7.540694-3.782994 1.886077.422742 3.143461-1.470561 1.676513-3.150687-1.463336-1.683739-5.029538-3.992557-9.845899-2.735173-3.396384.892454-7.612957 4.650155-14.040794.84187-5.484798-3.248244-5.445053-5.889474-5.445053-7.5696 0-1.322421.928586-3.179593 2.65207-3.714342 2.095641.224016 3.772153.773219 5.553448 1.683739.01807-.487779.02168-1.13815-.0036-1.875237.140914-.278215.0542-1.123698-.169819-2.153452-.130075-1.036981-.350478-2.102867-.686503-3.074811.03613-.0072.06142-.02529.07588-.07588.274602-1.242932 7.757485-5.57874 8.306687-5.994255.552816-.411902 1.987246-1.36578 1.828266-4.274385-.0542-.957491-.209564-1.062273-8.064604-1.033368-3.313281.01084-5.148773-3.230177-5.741333-4.498401.802124-4.447817 3.118169-7.623797 6.93368-9.770022.07226-.03974.0542-.07588-.02891-.09756.791285-.458873-9.119651-.02168-13.585534 5.795531-1.19596.169819-2.839955-.173432-4.67906-.173432-2.305205 0-4.115405.252922-5.791918.675663-.180658.04697-.440807.03974-.75154-.0036-.469713-.346865-1.170668-.924973-1.929435-1.676513.581721-.650371 1.170669-1.28629 1.788521-1.900529 8.45844-8.462053 20.125379-13.690316 33.031636-13.693929z"/></svg>