<svg width="64" height="64" viewBox="0 0 64 64" fill="none" xmlns="http://www.w3.org/2000/svg">
<path fill-rule="evenodd" clip-rule="evenodd" d="M5.75 29C5.33579 29 5 29.3358 5 29.75V35.25C5 35.6642 5.33579 36 5.75 36C6.16421 36 6.5 35.6642 6.5 35.25V29.75C6.5 29.3358 6.16421 29 5.75 29ZM3 29.75C3 28.2312 4.23122 27 5.75 27C7.26878 27 8.5 28.2312 8.5 29.75V35.25C8.5 36.7688 7.26878 38 5.75 38C4.23122 38 3 36.7688 3 35.25V29.75Z" fill="black"/>
<path fill-rule="evenodd" clip-rule="evenodd" d="M57.75 29C57.3358 29 57 29.3358 57 29.75V35.25C57 35.6642 57.3358 36 57.75 36C58.1642 36 58.5 35.6642 58.5 35.25V29.75C58.5 29.3358 58.1642 29 57.75 29ZM55 29.75C55 28.2312 56.2312 27 57.75 27C59.2688 27 60.5 28.2312 60.5 29.75V35.25C60.5 36.7688 59.2688 38 57.75 38C56.2312 38 55 36.7688 55 35.25V29.75Z" fill="black"/>
<path fill-rule="evenodd" clip-rule="evenodd" d="M48 33.5H15.5V31.5H48V33.5Z" fill="black"/>
<path fill-rule="evenodd" clip-rule="evenodd" d="M50 26.75C50 26.3358 50.3358 26 50.75 26C51.1642 26 51.5 26.3358 51.5 26.75C51.5 25.896 51.8892 25.133 52.5 24.6286C53.1108 25.133 53.5 25.896 53.5 26.75C53.5 26.3358 53.8358 26 54.25 26C54.6642 26 55 26.3358 55 26.75V37.75C55 38.1642 54.6642 38.5 54.25 38.5C53.8358 38.5 53.5 38.1642 53.5 37.75C53.5 38.604 53.1108 39.367 52.5 39.8714C51.8892 39.367 51.5 38.604 51.5 37.75C51.5 38.1642 51.1642 38.5 50.75 38.5C50.3358 38.5 50 38.1642 50 37.75V26.75ZM52.5 39.8714C52.0245 40.2641 51.4148 40.5 50.75 40.5C49.2312 40.5 48 39.2688 48 37.75V26.75C48 25.2312 49.2312 24 50.75 24C51.4148 24 52.0245 24.2359 52.5 24.6286C52.9755 24.2359 53.5852 24 54.25 24C55.7688 24 57 25.2312 57 26.75V37.75C57 39.2688 55.7688 40.5 54.25 40.5C53.5852 40.5 52.9755 40.2641 52.5 39.8714Z" fill="black"/>
<path d="M53.5 37.75V26.75C53.5 25.896 53.1108 25.133 52.5 24.6286C51.8892 25.133 51.5 25.896 51.5 26.75V37.75C51.5 38.604 51.8892 39.367 52.5 39.8714C53.1108 39.367 53.5 38.604 53.5 37.75Z" fill="black"/>
<path fill-rule="evenodd" clip-rule="evenodd" d="M8.5 26.75C8.5 26.3358 8.83579 26 9.25 26C9.66421 26 10 26.3358 10 26.75C10 25.896 10.3892 25.133 11 24.6286C11.6108 25.133 12 25.896 12 26.75C12 26.3358 12.3358 26 12.75 26C13.1642 26 13.5 26.3358 13.5 26.75V37.75C13.5 38.1642 13.1642 38.5 12.75 38.5C12.3358 38.5 12 38.1642 12 37.75C12 38.604 11.6108 39.367 11 39.8714C10.3892 39.367 10 38.604 10 37.75C10 38.1642 9.66421 38.5 9.25 38.5C8.83579 38.5 8.5 38.1642 8.5 37.75V26.75ZM11 39.8714C10.5245 40.2641 9.91481 40.5 9.25 40.5C7.73122 40.5 6.5 39.2688 6.5 37.75V26.75C6.5 25.2312 7.73122 24 9.25 24C9.91481 24 10.5245 24.2359 11 24.6286C11.4755 24.2359 12.0852 24 12.75 24C14.2688 24 15.5 25.2312 15.5 26.75V37.75C15.5 39.2688 14.2688 40.5 12.75 40.5C12.0852 40.5 11.4755 40.2641 11 39.8714Z" fill="black"/>
<path d="M10 26.75V37.75C10 38.604 10.3892 39.367 11 39.8714C11.6108 39.367 12 38.604 12 37.75V26.75C12 25.896 11.6108 25.133 11 24.6286C10.3892 25.133 10 25.896 10 26.75Z" fill="black"/>
</svg>
