<svg height="280.4" preserveAspectRatio="xMidYMid" viewBox="-128.2546875 -65.2 756.509375 280.4" width="756.509375" xmlns="http://www.w3.org/2000/svg" xmlns:xlink="http://www.w3.org/1999/xlink"><filter id="a" height="300%" width="300%" x="-100%" y="-100%"><feFlood flood-color="#444" result="color1"/><feConvolveMatrix divisor="1" in="SourceAlpha" kernelMatrix="1 0 0 0 0 0 0 0 1 0 0 0 0 0 0 0 1 0 0 0 0 0 0 0 1 0 0 0 0 0 0 0 1 0 0 0 0 0 0 0 1 0 0 0 0 0 0 0 1" order="7,7" result="extrude"/><feComposite in="color1" in2="extrude" operator="in" result="comp-extrude"/><feOffset dx="3.5" dy="3.5" in="comp-extrude" result="offset-extrude"/><feMerge><feMergeNode in="offset-extrude"/><feMergeNode in="SourceGraphic"/></feMerge></filter><g filter="url(#a)"><path d="m135.34 0h-41.18l-5.1-17.07h-42.42l-5.1 17.07h-39.78l44.18-121.09h45.23zm-67.76-87.3-12.84 43.12h26.22l-12.67-43.12zm162.98-33.79q9.15 0 16.81 3.79 7.65 3.78 12.14 10.64 4.49 6.87 4.49 15.32 0 22.35-20.24 28.16v.7q23.06 5.28 23.06 30.27 0 9.51-4.67 16.81-4.66 7.3-12.76 11.35-8.09 4.05-17.77 4.05h-81.67v-121.09zm-41.71 26.58v20.59h26.75q3.87 0 6.42-2.73 2.56-2.73 2.56-6.77v-1.76q0-3.88-2.64-6.6-2.64-2.73-6.34-2.73zm0 45.58v20.77h29.57q3.87 0 6.42-2.73 2.55-2.73 2.55-6.77v-1.76q0-4.05-2.55-6.78-2.55-2.73-6.42-2.73zm207.33-41.18h-39.6v90.11h-38.9v-90.11h-39.78v-30.98h118.28zm77.96-33.09q31.33 0 48.4 16.02 17.08 16.01 17.08 46.64 0 30.62-17.08 46.64-17.07 16.01-48.4 16.01-31.32 0-48.31-15.93-16.98-15.92-16.98-46.72 0-30.8 16.98-46.73 16.99-15.93 48.31-15.93zm0 29.04q-12.49 0-19 7.57-6.52 7.57-6.52 20.41v11.27q0 12.85 6.52 20.41 6.51 7.57 19 7.57 12.5 0 19.1-7.57 6.6-7.56 6.6-20.41v-11.27q0-12.84-6.6-20.41-6.6-7.57-19.1-7.57z" fill="#fafafa" transform="translate(-20.690004 137.655003)"/></g></svg>