<svg height="227.6" preserveAspectRatio="xMidYMid" viewBox="-52.93123169 -38.8 605.86246338 227.6" width="605.862463" xmlns="http://www.w3.org/2000/svg" xmlns:xlink="http://www.w3.org/1999/xlink"><filter id="a" height="300%" width="300%" x="-100%" y="-100%"><feFlood flood-color="#444" result="color1"/><feConvolveMatrix divisor="1" in="SourceAlpha" kernelMatrix="1 0 0 0 0 0 0 0 1 0 0 0 0 0 0 0 1 0 0 0 0 0 0 0 1 0 0 0 0 0 0 0 1 0 0 0 0 0 0 0 1 0 0 0 0 0 0 0 1" order="7,7" result="extrude"/><feComposite in="color1" in2="extrude" operator="in" result="comp-extrude"/><feOffset dx="3.5" dy="3.5" in="comp-extrude" result="offset-extrude"/><feMerge><feMergeNode in="offset-extrude"/><feMergeNode in="SourceGraphic"/></feMerge></filter><g filter="url(#a)"><path d="m107.66 0h-32.76l-4.06-13.58h-33.74l-4.06 13.58h-31.64l35.14-96.32h35.98zm-53.9-69.44-10.22 34.3h20.86l-10.08-34.3zm129.64-26.88q7.28 0 13.37 3.01 6.09 3.01 9.66 8.47 3.57 5.46 3.57 12.18 0 17.78-16.1 22.4v.56q18.34 4.2 18.34 24.08 0 7.56-3.71 13.37-3.71 5.81-10.15 9.03-6.44 3.22-14.14 3.22h-64.96v-96.32zm-33.18 21.14v16.38h21.28q3.08 0 5.11-2.17 2.03-2.17 2.03-5.39v-1.4q0-3.08-2.1-5.25-2.1-2.17-5.04-2.17zm0 36.26v16.52h23.52q3.08 0 5.11-2.17 2.03-2.17 2.03-5.39v-1.4q0-3.22-2.03-5.39-2.03-2.17-5.11-2.17zm164.92-32.76h-31.5v71.68h-30.94v-71.68h-31.64v-24.64h94.08zm62.02-26.32q24.92 0 38.5 12.74 13.58 12.74 13.58 37.1 0 24.36-13.58 37.1-13.58 12.74-38.5 12.74-24.92 0-38.43-12.67-13.51-12.67-13.51-37.17 0-24.5 13.51-37.17 13.51-12.67 38.43-12.67zm0 23.1q-9.94 0-15.12 6.02-5.18 6.02-5.18 16.24v8.96q0 10.22 5.18 16.24 5.18 6.02 15.12 6.02 9.94 0 15.19-6.02 5.25-6.02 5.25-16.24v-8.96q0-10.22-5.25-16.24-5.25-6.02-15.19-6.02z" fill="#fafafa" transform="translate(34.679983 124.840003)"/></g></svg>