<?xml version="1.0" encoding="UTF-8" standalone="no"?>
<svg
   xmlns:dc="http://purl.org/dc/elements/1.1/"
   xmlns:cc="http://creativecommons.org/ns#"
   xmlns:rdf="http://www.w3.org/1999/02/22-rdf-syntax-ns#"
   xmlns:svg="http://www.w3.org/2000/svg"
   xmlns="http://www.w3.org/2000/svg"
   xmlns:sodipodi="http://sodipodi.sourceforge.net/DTD/sodipodi-0.dtd"
   xmlns:inkscape="http://www.inkscape.org/namespaces/inkscape"
   version="1.0"
   width="128.000000pt"
   height="128.000000pt"
   viewBox="0 0 128.000000 128.000000"
   preserveAspectRatio="xMidYMid meet"
   id="svg18"
   sodipodi:docname="auto_gray.svg"
   inkscape:version="1.0.1 (c497b03c, 2020-09-10)">
  <metadata
     id="metadata24">
    <rdf:RDF>
      <cc:Work
         rdf:about="">
        <dc:format>image/svg+xml</dc:format>
        <dc:type
           rdf:resource="http://purl.org/dc/dcmitype/StillImage" />
        <dc:title></dc:title>
      </cc:Work>
    </rdf:RDF>
  </metadata>
  <defs
     id="defs22" />
  <sodipodi:namedview
     pagecolor="#ffffff"
     bordercolor="#666666"
     borderopacity="1"
     objecttolerance="10"
     gridtolerance="10"
     guidetolerance="10"
     inkscape:pageopacity="0"
     inkscape:pageshadow="2"
     inkscape:window-width="1227"
     inkscape:window-height="728"
     id="namedview20"
     showgrid="false"
     inkscape:zoom="3.3339844"
     inkscape:cx="85.333333"
     inkscape:cy="109.32865"
     inkscape:window-x="0"
     inkscape:window-y="23"
     inkscape:window-maximized="0"
     inkscape:current-layer="svg18" />
  <g
     transform="matrix(0.1,0,0,-0.1,0,128)"
     fill="#000000"
     stroke="none"
     id="g16"
     style="fill:#808080">
    <path
       d="M 75,1031 C 64,1026 44,1010 30,995 L 5,968 V 639 310 l 33,-32 32,-33 h 570 570 l 32,33 33,32 v 330 330 l -33,32 -32,33 -558,2 c -306,1 -566,-2 -577,-6 z M 310,782 c 36,-27 49,-74 49,-179 1,-70 -3,-95 -15,-107 -30,-31 -64,-12 -64,36 0,26 -3,28 -39,28 -36,0 -39,-2 -45,-34 -7,-39 -37,-56 -61,-36 -12,10 -15,38 -15,119 0,120 9,144 60,179 40,27 88,25 130,-6 z m 791,5 c 51,-34 60,-60 57,-160 -3,-86 -4,-90 -35,-118 -42,-37 -75,-45 -120,-28 -62,24 -78,57 -78,158 0,99 15,133 68,156 45,20 69,18 108,-8 z m -641,3 c 11,-7 16,-37 20,-122 5,-109 6,-113 28,-116 44,-6 52,13 52,119 0,75 4,101 16,113 20,20 29,20 49,-1 14,-13 16,-34 13,-124 -4,-125 -18,-154 -86,-179 -37,-13 -45,-12 -77,3 -60,29 -75,66 -75,189 0,91 3,108 18,117 21,13 23,13 42,1 z m 421,0 c 37,-20 10,-70 -37,-70 -24,0 -24,-1 -24,-104 0,-82 -3,-108 -16,-120 -19,-20 -29,-20 -48,0 -13,12 -16,38 -16,120 0,103 0,104 -24,104 -24,0 -56,23 -56,40 0,5 7,16 16,24 18,19 173,23 205,6 z"
       id="path10"
       style="fill:#808080" />
    <path
       d="m 207,723 c -4,-3 -7,-24 -7,-45 0,-38 0,-38 40,-38 39,0 40,1 40,33 0,18 -5,38 -12,45 -13,13 -50,16 -61,5 z"
       id="path12"
       style="fill:#808080" />
    <path
       d="m 1012,718 c -7,-7 -12,-39 -12,-79 0,-73 12,-93 52,-87 22,3 23,7 23,88 0,83 -1,85 -25,88 -14,2 -31,-3 -38,-10 z"
       id="path14"
       style="fill:#808080" />
  </g>
</svg>
